<?xml version="1.0" encoding="iso-8859-1"?>
<!-- Uploaded to: SVG Repo, www.svgrepo.com, Generator: SVG Repo Mixer Tools -->
<svg height="800px" width="800px" version="1.1" id="Layer_1" xmlns="http://www.w3.org/2000/svg" xmlns:xlink="http://www.w3.org/1999/xlink" 
	 viewBox="0 0 503.607 503.607" xml:space="preserve">
<g transform="translate(1 1)">
	<path style="fill:#00DA6C;" d="M309.557,66.148c0,32.734-26.02,58.754-58.754,58.754s-58.754-26.02-58.754-58.754
		s26.02-58.754,58.754-58.754S309.557,33.413,309.557,66.148"/>
	<g>
		<path style="fill:#FFE100;" d="M410.279,368.311c10.911,37.77,10.911,79.738,0,117.508c-105.757,11.751-212.354,11.751-318.951,0
			c-10.911-37.77-10.911-79.738,0-117.508H410.279z"/>
		<path style="fill:#FFE100;" d="M401.046,368.311c0-5.875,0.839-10.911,0.839-16.787c0-99.882-46.164-217.39-109.954-243.41
			c-10.911,10.072-25.18,16.787-41.128,16.787s-30.216-6.715-41.128-16.787c-63.79,26.02-109.954,143.528-109.954,243.41
			c0,5.875,0,10.911,0.839,16.787H401.046z"/>
	</g>
	<path style="fill:#00DA6C;" d="M291.931,108.115c-1.679,1.679-4.197,3.357-5.875,5.036c-0.839,5.036-1.679,10.911-1.679,15.948
		c0,43.646,36.092,79.738,79.738,79.738c3.357,0,5.875,0,9.233-0.839C354.043,160.154,325.505,121.544,291.931,108.115"/>
	<path style="fill:#FFA800;" d="M291.931,108.115c-1.679,1.679-4.197,3.357-5.875,5.036
		c57.915,34.413,99.043,144.367,99.043,238.374c0,5.875,0,10.911-0.839,16.787h16.787c0-5.875,0.839-10.911,0.839-16.787
		C401.885,251.643,355.721,134.134,291.931,108.115"/>
	<path style="fill:#00AD55;" d="M291.931,108.115c-1.679,1.679-4.197,3.357-5.875,5.036l0,0
		c28.538,16.787,52.879,52.039,70.505,94.846h-0.839c2.518,0,5.875,0.839,8.393,0.839c3.357,0,5.875,0,9.233-0.839
		C354.043,160.154,325.505,121.544,291.931,108.115"/>
	<g>
		<path style="fill:#00DA6C;" d="M208.836,368.311h159.475c-2.518-41.967-36.931-75.541-79.738-75.541
			S211.354,326.344,208.836,368.311"/>
		<path style="fill:#00DA6C;" d="M103.918,299.485c5.875,0.839,10.911,1.679,16.787,1.679c43.646,0,79.738-36.092,79.738-79.738
			c0-30.216-16.787-56.236-41.128-69.666C131.616,189.531,111.472,244.089,103.918,299.485"/>
	</g>
	<g>
		<path style="fill:#FFFFFF;" d="M209.675,108.115c1.679,1.679,4.197,3.357,5.875,5.036
			c-57.915,34.413-99.043,144.367-99.043,238.374c0,5.875,0,10.911,0.839,16.787h-16.787c-0.839-5.875-0.839-10.911-0.839-16.787
			C99.721,251.643,145.885,134.134,209.675,108.115"/>
		<path style="fill:#FFFFFF;" d="M250.803,7.393c2.518,0,5.875,0,8.393,0.839c-28.538,4.197-50.361,28.538-50.361,57.915
			s21.823,53.718,50.361,57.915c-2.518,0-5.875,0.839-8.393,0.839c-32.734,0-58.754-26.02-58.754-58.754
			S218.069,7.393,250.803,7.393"/>
	</g>
	<path style="fill:#00AD55;" d="M250.803,7.393c-2.518,0-5.875,0-8.393,0.839c28.538,4.197,50.361,28.538,50.361,57.915
		s-21.823,53.718-50.361,57.915c2.518,0,5.875,0.839,8.393,0.839c32.734,0,58.754-26.02,58.754-58.754S283.538,7.393,250.803,7.393"
		/>
	<path style="fill:#FFA800;" d="M410.279,485.82c10.911-37.77,10.911-79.738,0-117.508h-16.787
		c10.911,37.77,10.911,79.738,0,117.508H410.279z"/>
	<path style="fill:#FFFFFF;" d="M91.328,485.82c-10.911-37.77-10.911-79.738,0-117.508h16.787
		c-10.911,37.77-10.911,79.738,0,117.508H91.328z"/>
	<path d="M250.803,502.607c-52.879,0-107.436-2.518-160.315-8.393c-3.357,0-5.875-2.518-7.554-5.875
		c-11.751-38.61-11.751-83.934,0-122.544c1.679-3.357,5.036-5.875,8.393-5.875h318.951c3.357,0,6.715,2.518,8.393,5.875
		c11.751,38.61,11.751,83.095,0,122.544c-0.839,3.357-4.197,5.875-7.554,5.875C358.239,500.089,304.521,502.607,250.803,502.607z
		 M98.043,478.266c101.561,10.911,204.8,10.911,305.521,0c8.393-32.734,8.393-68.826,0-101.561H98.043
		C88.81,409.439,89.649,445.531,98.043,478.266z"/>
	<path d="M250.803,133.295c-36.931,0-67.148-30.216-67.148-67.148S213.872-1,250.803-1s67.148,30.216,67.148,67.148
		S287.734,133.295,250.803,133.295z M250.803,15.787c-27.698,0-50.361,22.662-50.361,50.361s22.662,50.361,50.361,50.361
		s50.361-22.662,50.361-50.361S278.502,15.787,250.803,15.787z"/>
	<path d="M401.046,376.705H100.561c-4.197,0-8.393-3.357-8.393-7.554c-0.839-5.875-0.839-11.751-0.839-17.626
		c0-99.043,46.164-223.266,114.99-250.964c3.357-0.839,6.715-0.839,9.233,1.679c9.233,9.233,21.823,14.269,35.252,14.269
		c13.429,0,26.02-5.036,35.252-14.269c2.518-2.518,5.875-3.357,9.233-1.679c68.826,27.698,114.99,151.921,114.99,250.964
		c0,5.875,0,11.751-0.839,17.626C409.439,373.348,406.082,376.705,401.046,376.705z M108.115,359.918h285.377
		c0-2.518,0-5.875,0-8.393c0-99.882-46.164-206.479-99.882-233.338c-11.751,10.072-26.859,15.108-42.807,15.108
		s-31.056-5.036-42.807-15.108c-53.718,26.859-99.882,133.456-99.882,233.338C108.115,354.043,108.115,357.4,108.115,359.918z"/>
	<path d="M267.59,91.328c-2.518,0-4.197-0.839-5.875-2.518l-33.574-33.574c-3.357-3.357-3.357-8.393,0-11.751s8.393-3.357,11.751,0
		l33.574,33.574c3.357,3.357,3.357,8.393,0,11.751C271.787,90.489,270.108,91.328,267.59,91.328z"/>
	<path d="M234.016,91.328c-2.518,0-4.197-0.839-5.875-2.518c-3.357-3.357-3.357-8.393,0-11.751l33.574-33.574
		c3.357-3.357,8.393-3.357,11.751,0s3.357,8.393,0,11.751L239.892,88.81C238.213,90.489,236.534,91.328,234.016,91.328z"/>
	<path d="M284.377,460.639h-67.148c-14.269,0-25.18-10.911-25.18-25.18v-16.787c0-14.269,10.911-25.18,25.18-25.18h67.148
		c14.269,0,25.18,10.911,25.18,25.18v16.787C309.557,449.728,298.646,460.639,284.377,460.639z M217.229,410.279
		c-5.036,0-8.393,3.357-8.393,8.393v16.787c0,5.036,3.357,8.393,8.393,8.393h67.148c5.036,0,8.393-3.357,8.393-8.393v-16.787
		c0-5.036-3.357-8.393-8.393-8.393H217.229z"/>
	<path d="M364.115,217.229c-48.682,0-88.131-39.449-88.131-88.131c0-5.875,0.839-11.751,1.679-17.626
		c0-1.679,1.679-4.197,3.357-5.036c1.679-1.679,3.357-2.518,5.036-4.197c2.518-2.518,5.875-3.357,9.233-1.679
		c33.574,13.43,63.79,51.2,85.613,104.918c0.839,2.518,0.839,5.036-0.839,7.554c-1.679,2.518-3.357,3.357-5.875,4.197
		C370.829,217.229,367.472,217.229,364.115,217.229z M293.61,118.187c-0.839,3.357-0.839,7.554-0.839,10.911
		c0,38.61,30.216,69.666,67.987,71.344C342.292,160.154,318.79,129.938,293.61,118.187z"/>
	<path d="M368.311,376.705H208.836c-2.518,0-4.197-0.839-5.875-2.518c-1.679-1.679-2.518-4.197-2.518-5.875
		c2.518-47.003,41.128-83.095,88.131-83.095s85.613,36.931,88.131,83.095c0,2.518-0.839,4.197-2.518,5.875
		C372.508,375.866,369.99,376.705,368.311,376.705z M218.069,359.918h140.171c-5.875-33.574-35.252-58.754-70.505-58.754
		S224.784,326.344,218.069,359.918z"/>
	<path d="M120.705,309.557c-5.875,0-12.59-0.839-18.466-1.679c-4.197-0.839-7.554-5.036-6.715-9.233
		c8.393-57.915,29.377-113.311,57.075-151.082c2.518-3.357,7.554-4.197,10.911-2.518c28.538,15.108,45.325,45.325,45.325,77.22
		C208.836,270.108,169.387,309.557,120.705,309.557z M113.151,292.77c42.807,4.197,78.898-29.377,78.898-71.344
		c0-23.502-11.751-45.325-30.216-58.754C139.17,196.246,121.544,244.089,113.151,292.77z"/>
</g>
</svg>