<?xml version="1.0" encoding="iso-8859-1"?>
<!-- Uploaded to: SVG Repo, www.svgrepo.com, Generator: SVG Repo Mixer Tools -->
<!DOCTYPE svg PUBLIC "-//W3C//DTD SVG 1.1//EN" "http://www.w3.org/Graphics/SVG/1.1/DTD/svg11.dtd">
<svg fill="#000000" version="1.1" id="Capa_1" xmlns="http://www.w3.org/2000/svg" xmlns:xlink="http://www.w3.org/1999/xlink" 
	 width="800px" height="800px" viewBox="0 0 61.05 61.05" xml:space="preserve"
	>
<g>
	<g>
		<path d="M61.05,26.031c0-1.066-0.368-2.056-1.001-2.877c-1.746-2.281-3.889-2.811-5.917-2.559l0.119-0.062
			c0,0-22.536-0.627-24.164,1.451c-1.628-2.078-24.165-1.451-24.165-1.451l0.011,0.005C4.209,20.56,2.465,21.239,1,23.154
			c-0.631,0.82-1,1.811-1,2.877c0,2.84,2.619,5.143,5.849,5.143c0.334,0,0.66-0.029,0.979-0.077c0,0.025-0.004,0.051-0.004,0.077
			c0,2.842,2.619,5.145,5.849,5.145c0.257,0,0.509-0.021,0.756-0.048c1.004,1.562,2.906,2.62,5.093,2.62
			c1.045,0,2.023-0.243,2.871-0.666c1.039,1.43,2.855,2.381,4.927,2.381c1.652,0,3.141-0.604,4.205-1.574
			c1.063,0.969,2.553,1.574,4.204,1.574c2.071,0,3.889-0.95,4.927-2.381c0.85,0.423,1.827,0.666,2.871,0.666
			c2.186,0,4.089-1.058,5.093-2.62c0.248,0.027,0.499,0.048,0.756,0.048c3.23,0,5.849-2.303,5.849-5.145
			c0-0.025-0.004-0.051-0.004-0.077c0.319,0.048,0.645,0.077,0.979,0.077C58.431,31.173,61.05,28.871,61.05,26.031z"/>
	</g>
</g>
</svg>