<?xml version="1.0" encoding="iso-8859-1"?>
<!-- Uploaded to: SVG Repo, www.svgrepo.com, Generator: SVG Repo Mixer Tools -->
<!DOCTYPE svg PUBLIC "-//W3C//DTD SVG 1.1//EN" "http://www.w3.org/Graphics/SVG/1.1/DTD/svg11.dtd">
<svg fill="#000000" version="1.1" id="Capa_1" xmlns="http://www.w3.org/2000/svg" xmlns:xlink="http://www.w3.org/1999/xlink" 
	 width="800px" height="800px" viewBox="0 0 62.474 62.474"
	 xml:space="preserve">
<g>
	<g>
		<path d="M54.652,17.987c-7.482-1.597-14.968,6.001-10.424,13.008c4.082,6.296,12.634,2.287,11.381-4.681
			c-0.562-3.127-5.314-1.798-4.757,1.311c0.52,2.885-5.777-0.093-2.383-3.114c1.458-1.299,3.849-2.301,5.822-1.565
			c4.082,1.522,3.921,7.339,2.571,10.67c-3.721,9.186-16.058,5.669-23.689,5.521c-0.908-0.019-1.547,0.376-1.936,0.942
			c-0.39-0.566-1.029-0.961-1.937-0.942C21.669,39.284,9.332,42.8,5.611,33.615c-1.35-3.331-1.51-9.148,2.572-10.67
			c1.973-0.735,4.363,0.267,5.823,1.565c3.395,3.021-2.903,5.998-2.384,3.114c0.559-3.109-4.194-4.438-4.757-1.311
			c-1.253,6.968,7.299,10.977,11.381,4.681c4.544-7.007-2.942-14.604-10.423-13.008c-8.979,1.916-9.173,12.786-5.833,19.5
			c4.97,9.986,18.557,6.751,27.309,6.581c0.907-0.018,1.547-0.438,1.937-1.021c0.389,0.582,1.029,1.004,1.937,1.021
			c8.754,0.171,22.34,3.406,27.31-6.581C63.826,30.772,63.63,19.903,54.652,17.987z"/>
	</g>
</g>
</svg>