<?xml version="1.0" ?>
<!-- Uploaded to: SVG Repo, www.svgrepo.com, Generator: SVG Repo Mixer Tools -->
<svg width="800px" height="800px" viewBox="0 0 512 512" baseProfile="tiny" overflow="visible" version="1.1" xml:space="preserve" xmlns="http://www.w3.org/2000/svg" xmlns:xlink="http://www.w3.org/1999/xlink">
<g id="Layer_1"/>
<g id="Layer_2"/>
<g id="Layer_3"/>
<g id="Layer_4"/>
<g id="Layer_5"/>
<g id="Layer_6"/>
<g id="Layer_7"/>
<g id="Layer_8"/>
<g id="Layer_9"/>
<g id="Layer_10"/>
<g id="Layer_11"/>
<g id="Layer_12"/>
<g id="Layer_13"/>
<g id="Layer_14"/>
<g id="Layer_15"/>
<g id="Layer_16"/>
<g id="Layer_17"/>
<g id="Layer_18"/>
<g id="Layer_19"/>
<g id="Layer_20"/>
<g id="Layer_21"/>
<g id="Layer_22"/>
<g id="Layer_23"/>
<g id="Layer_24"/>
<g id="Layer_25"/>
<g id="Layer_26"/>
<g id="Layer_27"/>
<g id="Layer_28"/>
<g id="Layer_29"/>
<g id="Layer_30"/>
<g id="Layer_31"/>
<g id="Layer_32"/>
<g id="Layer_33"/>
<g id="Layer_34"/>
<g id="Layer_35"/>
<g id="Layer_36"/>
<g id="Layer_37"/>
<g id="Layer_38"/>
<g id="Layer_39"/>
<g id="Layer_40"/>
<g id="Layer_41"/>
<g id="Layer_42"/>
<g id="Layer_43"/>
<g id="Layer_44"/>
<g id="Layer_45"/>
<g id="Layer_46"/>
<g id="Layer_47"/>
<g id="Layer_48"/>
<g id="Layer_49"/>
<g id="Layer_50">
<g>
<path d="M250.911,7.5L250.911,7.5c-54.765,0-101.06,40.721-108.252,95.219l-35.408,268.285h287.321    l-35.408-268.285C351.971,48.221,305.676,7.5,250.911,7.5z" fill="#FFAAA1"/>
<path d="M359.164,102.719C351.971,48.221,305.676,7.5,250.911,7.5h0c-3.268,0-6.505,0.149-9.707,0.434    c50.444,4.48,91.782,43.54,98.545,94.786l35.408,268.285h19.414L359.164,102.719z" fill="#FF938A"/>
<path d="M493.287,462.232c8.698,8.038,4.288,22.559-7.417,24.397c-67.409,10.585-146.506,18.218-234.959,17.859    c-84.291-0.342-159.9-7.873-224.792-18.146c-11.358-1.798-15.96-15.641-7.941-23.875c29.691-30.487,59.382-60.975,89.073-91.462    h287.321L493.287,462.232z" fill="#FFAAA1"/>
<path d="M493.287,462.232l-98.716-91.227h-19.414l98.716,91.227c8.698,8.038,4.288,22.559-7.417,24.397    c-63.318,9.943-136.951,17.28-218.962,17.836c1.139,0.007,2.274,0.018,3.416,0.023c88.453,0.359,167.55-7.274,234.959-17.859    C497.576,484.791,501.985,470.269,493.287,462.232z" fill="#FF938A"/>
<polygon fill="#F54432" points="117.478,293.514 107.251,371.004 394.571,371.004 384.345,293.514   "/>
<polygon fill="#E83826" points="384.345,293.514 364.931,293.514 375.157,371.004 394.571,371.004   "/>
<g>
<g>
<path d="M252.425,132.713c-0.485,0-0.977-0.047-1.471-0.146c-4.063-0.808-6.701-4.756-5.893-8.819      c0.959-4.82,0.914-9.901-0.129-14.692c-1.083-4.974-3.264-9.761-6.308-13.843c-2.476-3.32-1.791-8.02,1.53-10.496      c3.32-2.476,8.019-1.792,10.496,1.53c4.313,5.785,7.405,12.569,8.939,19.619c1.478,6.788,1.541,13.984,0.184,20.808      C259.063,130.243,255.93,132.713,252.425,132.713z" fill="#A05423"/>
</g>
<ellipse cx="222.635" cy="179.422" fill="#FFA83F" rx="37.298" ry="54.211"/>
<ellipse cx="279.187" cy="179.422" fill="#FFA83F" rx="37.298" ry="54.211"/>
<path d="M222.635,125.211c-1.646,0-3.264,0.171-4.854,0.472c18.304,3.46,32.445,26.192,32.445,53.739     c0,27.547-14.14,50.279-32.445,53.739c1.59,0.301,3.207,0.472,4.854,0.472c20.599,0,37.298-24.271,37.298-54.211     C259.933,149.482,243.234,125.211,222.635,125.211z" fill="#FF9C20"/>
<path d="M279.187,125.211c-1.646,0-3.264,0.171-4.854,0.472c18.304,3.46,32.445,26.192,32.445,53.739     c0,27.547-14.14,50.279-32.445,53.739c1.59,0.301,3.207,0.472,4.854,0.472c20.599,0,37.298-24.271,37.298-54.211     C316.485,149.482,299.787,125.211,279.187,125.211z" fill="#FF9C20"/>
<ellipse cx="252.417" cy="179.422" fill="#FF9000" rx="32.452" ry="54.211"/>
<path d="M252.706,125.211c-1.65,0-3.27,0.209-4.854,0.606c15.62,3.914,27.599,26.421,27.599,53.605     c0,27.184-11.978,49.691-27.599,53.605c1.584,0.397,3.204,0.606,4.854,0.606c17.923,0,32.452-24.271,32.452-54.211     C285.158,149.482,270.629,125.211,252.706,125.211z" fill="#F88000"/>
</g>
</g>
<g>
<g>
<path d="M393.69,378.504H106.37c-2.16,0-4.215-0.932-5.64-2.556c-1.424-1.625-2.079-3.784-1.796-5.926l35.408-268.285     c3.716-28.157,17.485-53.975,38.769-72.696C194.401,10.314,221.719,0,250.03,0c28.312,0,55.628,10.314,76.919,29.042     c21.284,18.722,35.052,44.539,38.769,72.696l35.408,268.285c0.283,2.142-0.372,4.301-1.796,5.926     C397.906,377.573,395.851,378.504,393.69,378.504z M114.924,363.504h270.211l-34.289-259.804     C344.173,53.133,300.831,15,250.03,15c-50.801,0-94.143,38.133-100.817,88.701L114.924,363.504z"/>
</g>
<g>
<path d="M255.956,512c-1.987,0-3.97-0.004-5.956-0.012c-75.407-0.306-151.421-6.443-225.934-18.239     c-8.035-1.272-14.619-6.855-17.183-14.57c-2.562-7.712-0.631-16.121,5.042-21.945l89.073-91.462     c1.412-1.449,3.35-2.267,5.373-2.267h287.32c1.887,0,3.705,0.711,5.09,1.992l98.716,91.227v0     c6.154,5.688,8.464,14.2,6.027,22.215c-2.437,8.014-9.093,13.799-17.371,15.099C410.227,505.96,332.81,512,255.956,512z      M109.535,378.504L22.67,467.699c-2.554,2.623-1.937,5.595-1.553,6.75c0.384,1.157,1.67,3.911,5.294,4.484     c73.759,11.677,149.005,17.751,223.649,18.054c78.026,0.31,156.664-5.661,233.766-17.768c3.834-0.602,5.062-3.707,5.347-4.644     c0.285-0.938,0.994-4.202-1.856-6.836l-96.561-89.235H109.535z"/>
</g>
<g>
<path d="M393.69,378.504H106.37c-2.16,0-4.215-0.932-5.64-2.556c-1.424-1.625-2.079-3.784-1.796-5.926l10.227-77.49     c0.492-3.73,3.673-6.519,7.436-6.519h266.867c3.763,0,6.943,2.788,7.436,6.519l10.227,77.49c0.283,2.142-0.372,4.301-1.796,5.926     C397.905,377.573,395.85,378.504,393.69,378.504z M114.924,363.504h270.211l-8.247-62.49H123.172L114.924,363.504z"/>
</g>
<g>
<g>
<path d="M221.754,241.13c-12.506,0-24.067-6.792-32.553-19.126c-7.897-11.478-12.247-26.601-12.247-42.584      s4.349-31.106,12.247-42.584c8.486-12.333,20.047-19.126,32.553-19.126c7.016,0,13.993,2.248,20.179,6.5      c3.414,2.347,4.278,7.016,1.932,10.429c-2.346,3.413-7.015,4.279-10.429,1.932c-3.727-2.562-7.657-3.861-11.682-3.861      c-16.153,0-29.8,21.391-29.8,46.71s13.646,46.71,29.8,46.71c4.024,0,7.955-1.299,11.682-3.86      c3.414-2.347,8.083-1.48,10.429,1.933c2.346,3.414,1.481,8.083-1.933,10.429C235.747,238.883,228.77,241.13,221.754,241.13z"/>
</g>
<g>
<path d="M278.305,241.13c-6.354,0-12.479-1.758-18.204-5.224c-3.543-2.145-4.677-6.757-2.531-10.3      c2.145-3.544,6.757-4.677,10.3-2.531c3.349,2.027,6.859,3.055,10.436,3.055c16.153,0,29.8-21.391,29.8-46.71      s-13.646-46.71-29.8-46.71c-3.576,0-7.086,1.028-10.436,3.056c-3.545,2.146-8.155,1.011-10.3-2.531      c-2.146-3.543-1.012-8.155,2.531-10.3c5.726-3.467,11.85-5.225,18.204-5.225c12.506,0,24.067,6.792,32.554,19.126      c7.897,11.478,12.246,26.601,12.246,42.584s-4.349,31.106-12.246,42.584C302.372,234.337,290.811,241.13,278.305,241.13z"/>
</g>
<g>
<path d="M251.535,241.13c-6.479,0-12.876-2.35-18.501-6.796c-13.229-10.437-21.449-31.48-21.449-54.914      c0-23.435,8.221-44.478,21.455-54.918c5.619-4.442,12.017-6.792,18.496-6.792c5.884,0,11.516,1.846,16.739,5.487      c14.095,9.786,23.211,31.857,23.211,56.223s-9.116,46.437-23.223,56.231C263.051,239.284,257.419,241.13,251.535,241.13z       M251.535,132.71c-3.113,0-6.208,1.199-9.199,3.564c-9.57,7.55-15.751,24.484-15.751,43.146s6.181,35.596,15.746,43.142      c5.652,4.467,11.708,4.72,17.366,0.775c10.047-6.975,16.789-24.621,16.789-43.917s-6.742-36.942-16.777-43.909      C257.038,133.649,254.291,132.71,251.535,132.71z"/>
</g>
<g>
<path d="M251.543,132.713c-0.485,0-0.977-0.047-1.471-0.146c-4.063-0.808-6.701-4.756-5.893-8.819      c0.959-4.82,0.914-9.901-0.129-14.692c-1.083-4.974-3.264-9.761-6.308-13.843c-2.476-3.32-1.791-8.02,1.53-10.496      c3.32-2.476,8.019-1.792,10.496,1.53c4.313,5.785,7.405,12.569,8.939,19.619c1.478,6.788,1.541,13.984,0.184,20.808      C258.182,130.243,255.049,132.713,251.543,132.713z"/>
</g>
</g>
</g>
</g>
</svg>