<?xml version="1.0" ?>
<!-- Uploaded to: SVG Repo, www.svgrepo.com, Generator: SVG Repo Mixer Tools -->
<svg width="800px" height="800px" viewBox="0 0 500 500" id="Layer_1" version="1.1" xml:space="preserve" xmlns="http://www.w3.org/2000/svg" xmlns:xlink="http://www.w3.org/1999/xlink">
<style type="text/css">
	.st0{fill:#F26E91;}
	.st1{fill:#00A779;}
	.st2{fill:#C4FFC9;}
	.st3{fill:#AB630A;}
	.st4{fill:#C98C40;}
	.st5{fill:#15AA78;}
	.st6{fill:#FF9000;}
	.st7{fill:#FCEECF;}
	.st8{fill:#FFE940;}
	.st9{fill:#F0E3CE;}
	.st10{fill:#FFB5C5;}
	.st11{fill:#91EDFF;}
	.st12{fill:#7191F0;}
	.st13{fill:#363636;}
	.st14{fill:#565656;}
	.st15{fill:#F3DF4D;}
	.st16{fill:#CD4A77;}
	.st17{fill:#577AE6;}
	.st18{fill:#F4D100;}
</style>
<g id="hat">
<g>
<g>
<ellipse class="st4" cx="250" cy="299.53" rx="210.61" ry="43.3"/>
</g>
<g>
<path class="st4" d="M153.33,287.59c0,0,12.35-71.48,30.74-110.21c0.62-1.32,1.32-2.58,2.08-3.8     c8.67-13.9,26.07-19.62,41.67-14.63h0c14.43,4.62,29.94,4.62,44.37,0.01l0.05-0.02c15.75-5.03,33.35,0.85,41.89,15     c0.4,0.66,0.78,1.33,1.14,2.02c10.43,19.97,24.88,55.77,33.36,111.62C348.63,287.59,265.59,313.57,153.33,287.59z"/>
</g>
<g>
<path class="st9" d="M157.03,268.51c0,0,109.35,15.87,187.9,0l3.7,19.08c0,0-83.04,26.44-195.3,0L157.03,268.51z"/>
</g>
</g>
</g>
</svg>